<svg width="20" height="21" viewBox="0 0 20 21" fill="none" xmlns="http://www.w3.org/2000/svg">
<g clip-path="url(#clip0_8327_3241)">
<path d="M2.30769 0.5C1.03365 0.5 0 1.53365 0 2.80769V16.6538C0 17.9279 1.03365 18.9615 2.30769 18.9615H9.56731L10 17.4231H2.30769C1.88401 17.4231 1.53846 17.0775 1.53846 16.6538V3.57692H16.9231V10.0673C17.2416 9.91106 17.5901 9.82692 17.9567 9.82692C18.128 9.82692 18.2963 9.83894 18.4615 9.875V2.80769C18.4615 1.53365 17.4279 0.5 16.1538 0.5H2.30769ZM3.84615 6.65385V8.19231H5.38462V6.65385H3.84615ZM6.92308 6.65385V8.19231H14.6154V6.65385H6.92308ZM3.84615 9.73077V11.2692H5.38462V9.73077H3.84615ZM6.92308 9.73077V11.2692H14.6154V9.73077H6.92308ZM17.9087 11.3413C17.6983 11.3413 17.491 11.4225 17.3317 11.5817L16.3942 12.5192L18.726 14.875L19.6635 13.9135C19.982 13.595 19.985 13.0841 19.6635 12.7596L18.5096 11.5817C18.3474 11.4195 18.119 11.3413 17.9087 11.3413ZM3.84615 12.8077V14.3462H5.38462V12.8077H3.84615ZM6.92308 12.8077V14.3462H12.3798L13.9183 12.8077H6.92308ZM15.601 13.2644L11.8029 17.0385C11.7518 17.0805 11.7037 17.1376 11.6827 17.2067L10.8654 19.9952C10.8293 20.1154 10.8744 20.2416 10.9615 20.3317C11.0276 20.3978 11.1118 20.4279 11.2019 20.4279C11.235 20.4279 11.268 20.4129 11.2981 20.4038L14.0625 19.5865C14.1286 19.5685 14.1887 19.5385 14.2308 19.4904L18.0288 15.7163L15.601 13.2644ZM12.3077 17.5433L13.4856 17.7837L13.726 18.9856L12.1635 19.4423L11.851 19.1058L12.3077 17.5433Z" fill="black"/>
</g>
<defs>
<clipPath id="clip0_8327_3241">
<rect width="20" height="20" fill="white" transform="translate(0 0.5)"/>
</clipPath>
</defs>
</svg>
