<svg xmlns="http://www.w3.org/2000/svg" width="21" height="21" viewBox="0 0 21 21" fill="none">
<path d="M2.96678 0.399939C2.74269 0.407571 2.52767 0.490284 2.35624 0.634799C2.1848 0.779314 2.0669 0.977246 2.02147 1.19681C1.8937 1.81478 1.41483 2.29365 0.796861 2.42142C0.572456 2.46882 0.371159 2.5919 0.226705 2.77005C0.0822506 2.9482 0.00341797 3.17058 0.00341797 3.39994C0.00341797 3.62929 0.0822506 3.85168 0.226705 4.02983C0.371159 4.20798 0.572456 4.33106 0.796861 4.37845C1.41483 4.50622 1.8937 4.9851 2.02147 5.60306C2.06886 5.82747 2.19195 6.02877 2.3701 6.17322C2.54824 6.31767 2.77063 6.39651 2.99999 6.39651C3.22934 6.39651 3.45173 6.31767 3.62988 6.17322C3.80802 6.02877 3.93111 5.82747 3.9785 5.60306C4.10627 4.9851 4.58514 4.50622 5.20311 4.37845C5.42752 4.33106 5.62881 4.20798 5.77327 4.02983C5.91772 3.85168 5.99655 3.62929 5.99655 3.39994C5.99655 3.17058 5.91772 2.9482 5.77327 2.77005C5.62881 2.5919 5.42752 2.46882 5.20311 2.42142C4.58514 2.29365 4.10627 1.81478 3.9785 1.19681C3.93075 0.966093 3.80307 0.759641 3.61798 0.613855C3.43289 0.468069 3.20227 0.392311 2.96678 0.399939ZM13.1933 1.49955C13.096 1.49345 12.9979 1.49681 12.9004 1.50931C12.5004 1.56931 12.1501 1.76939 11.9101 2.08939L9.65038 5.08939L13.25 7.79056L15.5 4.80033C16 4.14033 15.8709 3.20072 15.2109 2.70072L14.0098 1.80033C13.7698 1.62033 13.4854 1.51783 13.1933 1.49955ZM8.4492 6.67924L0.330064 17.4605C0.170064 17.6705 0.100611 17.9307 0.140611 18.2007C0.180611 18.4607 0.319283 18.7009 0.529283 18.8609L2.11913 20.0601C2.38913 20.2601 2.69952 20.3609 3.01952 20.3609C3.08952 20.3609 3.17022 20.3592 3.24022 20.3492C3.63022 20.2892 3.99045 20.0793 4.23045 19.7593L12.039 9.39017L8.4492 6.67924ZM18.4668 7.39994C18.2427 7.40757 18.0277 7.49028 17.8562 7.6348C17.6848 7.77931 17.5669 7.97725 17.5215 8.19681C17.4458 8.56229 17.1623 8.84581 16.7969 8.92142C16.5725 8.96882 16.3712 9.0919 16.2267 9.27005C16.0822 9.4482 16.0034 9.67058 16.0034 9.89994C16.0034 10.1293 16.0822 10.3517 16.2267 10.5298C16.3712 10.708 16.5725 10.8311 16.7969 10.8785C17.1623 10.9541 17.4459 11.2376 17.5215 11.6031C17.5689 11.8275 17.6919 12.0288 17.8701 12.1732C18.0482 12.3177 18.2706 12.3965 18.5 12.3965C18.7293 12.3965 18.9517 12.3177 19.1299 12.1732C19.308 12.0288 19.4311 11.8275 19.4785 11.6031C19.5541 11.2376 19.8376 10.9541 20.2031 10.8785C20.4275 10.8311 20.6288 10.708 20.7733 10.5298C20.9177 10.3517 20.9966 10.1293 20.9966 9.89994C20.9966 9.67058 20.9177 9.4482 20.7733 9.27005C20.6288 9.0919 20.4275 8.96882 20.2031 8.92142C19.8376 8.8458 19.5541 8.56229 19.4785 8.19681C19.4307 7.96609 19.3031 7.75964 19.118 7.61385C18.9329 7.46807 18.7023 7.39231 18.4668 7.39994ZM14.9668 14.3999C14.7427 14.4076 14.5277 14.4903 14.3562 14.6348C14.1848 14.7793 14.0669 14.9772 14.0215 15.1968C13.8937 15.8148 13.4148 16.2937 12.7969 16.4214C12.5725 16.4688 12.3712 16.5919 12.2267 16.77C12.0822 16.9482 12.0034 17.1706 12.0034 17.3999C12.0034 17.6293 12.0822 17.8517 12.2267 18.0298C12.3712 18.208 12.5725 18.3311 12.7969 18.3785C13.4148 18.5062 13.8937 18.9851 14.0215 19.6031C14.0689 19.8275 14.1919 20.0288 14.3701 20.1732C14.5482 20.3177 14.7706 20.3965 15 20.3965C15.2293 20.3965 15.4517 20.3177 15.6299 20.1732C15.808 20.0288 15.9311 19.8275 15.9785 19.6031C16.1063 18.9851 16.5851 18.5062 17.2031 18.3785C17.4275 18.3311 17.6288 18.208 17.7733 18.0298C17.9177 17.8517 17.9966 17.6293 17.9966 17.3999C17.9966 17.1706 17.9177 16.9482 17.7733 16.77C17.6288 16.5919 17.4275 16.4688 17.2031 16.4214C16.5851 16.2937 16.1063 15.8148 15.9785 15.1968C15.9307 14.9661 15.8031 14.7596 15.618 14.6139C15.4329 14.4681 15.2023 14.3923 14.9668 14.3999Z" fill="black"/>
</svg>