<svg width="24" height="24" viewBox="0 0 24 24" fill="none" xmlns="http://www.w3.org/2000/svg">
<g id="icons8-t&#195;&#169;l&#195;&#169;charger (5) 1">
<path id="Vector" d="M11.9998 23.2C12.4414 23.2 12.7998 22.8416 12.7998 22.4L12.7998 19.2L11.1998 19.2L11.1998 22.4C11.1998 22.8416 11.5582 23.2 11.9998 23.2ZM11.1998 19.2L11.1998 9.1312L9.36543 10.9656C9.05263 11.2784 8.54698 11.2784 8.23418 10.9656C7.92138 10.6528 7.92138 10.1471 8.23418 9.83433L11.4342 6.63433C11.5902 6.47833 11.795 6.39995 11.9998 6.39995C12.2046 6.39995 12.4094 6.47833 12.5654 6.63433L15.7654 9.83433C16.0782 10.1471 16.0782 10.6528 15.7654 10.9656C15.4526 11.2784 14.947 11.2784 14.6342 10.9656L12.7998 9.1312L12.7998 19.2L19.1998 19.2C20.0838 19.2 20.7998 18.484 20.7998 17.6L20.7998 3.99995C20.7998 3.11595 20.0838 2.39995 19.1998 2.39995L4.7998 2.39995C3.9158 2.39995 3.1998 3.11595 3.1998 3.99995L3.19981 17.6C3.19981 18.484 3.91581 19.2 4.79981 19.2L11.1998 19.2Z" fill="#011627"/>
</g>
</svg>
