<svg xmlns="http://www.w3.org/2000/svg" width="170" height="170" viewBox="0 0 170 170" fill="none">
  <g clip-path="url(#clip0_8160_12069)">
    <path d="M85 156.358C124.41 156.358 156.358 124.41 156.358 85.0001C156.358 45.5904 124.41 13.6426 85 13.6426C45.5903 13.6426 13.6425 45.5904 13.6425 85.0001C13.6425 124.41 45.5903 156.358 85 156.358Z" fill="#FCE1C1"/>
    <path d="M31.8826 24.6453C31.8826 24.6453 50.023 45.8121 68.8203 47.855C82.8299 49.378 86.3528 49.1649 90.3468 50.289" stroke="#231F20" stroke-width="3.45" stroke-miterlimit="10" stroke-linecap="round" stroke-linejoin="round"/>
    <path d="M8.17236 89.782C51.5988 116.362 75.6687 130.831 94.6068 132.745C109.961 134.297 110.872 124.972 110.872 124.972" stroke="#231F20" stroke-width="3.45" stroke-miterlimit="10" stroke-linecap="round" stroke-linejoin="round"/>
    <path d="M134.708 22.8975C134.708 22.8975 117.705 41.9842 103.936 45.5892C90.167 49.1962 74.3803 55.6086 62.0814 76.1811C55.2174 87.6608 65.835 94.7282 75.1838 87.4126C80.9237 82.92 87.9128 80.3003 96.6478 81.6727C104.646 82.9297 110.499 83.5436 116.364 81.1741" stroke="#231F20" stroke-width="3.45" stroke-miterlimit="10" stroke-linecap="round" stroke-linejoin="round"/>
    <path d="M86.6637 131.586C72.314 147.683 61.0825 132.335 67.9465 124.722C59.4618 132.708 46.3574 126.344 51.9898 116.681C43.1121 121.727 33.5053 113.741 36.125 107.252" stroke="#231F20" stroke-width="3.45" stroke-miterlimit="10" stroke-linecap="round" stroke-linejoin="round"/>
    <path d="M169.522 79.6746C169.522 79.6746 153.265 93.4026 141.695 99.8893" stroke="#231F20" stroke-width="3.45" stroke-miterlimit="10" stroke-linecap="round" stroke-linejoin="round"/>
    <path d="M107.003 83.0452C107.003 83.0452 121.525 93.8387 135.83 97.6451C149.431 101.264 143.892 115.918 130.559 114.169C117.228 112.421 108.485 108.705 99.3065 103.023" stroke="#231F20" stroke-width="3.45" stroke-miterlimit="10" stroke-linecap="round" stroke-linejoin="round"/>
    <path d="M86.6305 114.607C86.6305 114.607 102.37 124.972 117.009 125.316C128.966 125.598 127.5 114.171 127.5 114.171" stroke="#231F20" stroke-width="3.45" stroke-miterlimit="10" stroke-linecap="round" stroke-linejoin="round"/>
  </g>
  <defs>
    <clipPath id="clip0_8160_12069">
      <rect width="170" height="170" fill="white"/>
    </clipPath>
  </defs>
</svg>