<svg width="24" height="24" viewBox="0 0 24 24" fill="none" xmlns="http://www.w3.org/2000/svg">
<path d="M3.34494 0.959971C3.26432 0.963721 3.17619 0.991846 3.10494 1.03497C2.96432 1.1231 2.87994 1.2731 2.87994 1.43997V21.12H21.1199V1.43997C21.1199 1.2731 21.0374 1.1231 20.8949 1.03497C20.7524 0.946846 20.5781 0.931846 20.4299 1.00497L19.6799 1.37997L18.9299 1.00497C18.7949 0.937471 18.6449 0.937471 18.5099 1.00497L17.7599 1.37997L17.0099 1.00497C16.8749 0.937471 16.7249 0.937471 16.5899 1.00497L15.8399 1.37997L15.0899 1.00497C14.9549 0.937471 14.8049 0.937471 14.6699 1.00497L13.9199 1.37997L13.1699 1.00497C13.0349 0.937471 12.8849 0.937471 12.7499 1.00497L11.9999 1.37997L11.2499 1.00497C11.1149 0.937471 10.9649 0.937471 10.8299 1.00497L10.0799 1.37997L9.32994 1.00497C9.19494 0.937471 9.04494 0.937471 8.90994 1.00497L8.15994 1.37997L7.40994 1.00497C7.27494 0.937471 7.12494 0.937471 6.98994 1.00497L6.23994 1.37997L5.48994 1.00497C5.35494 0.937471 5.20494 0.937471 5.06994 1.00497L4.31994 1.37997L3.56994 1.00497C3.49494 0.967471 3.42557 0.956221 3.34494 0.959971ZM21.1199 21.12V22.08H2.87994V21.12H2.39994C1.86932 21.12 1.43994 21.5493 1.43994 22.08C1.43994 22.6106 1.86932 23.04 2.39994 23.04H21.5999C22.1306 23.04 22.5599 22.6106 22.5599 22.08C22.5599 21.5493 22.1306 21.12 21.5999 21.12H21.1199ZM6.23994 5.27997H13.4399C13.7062 5.27997 13.9199 5.4956 13.9199 5.75997C13.9199 6.02435 13.7062 6.23997 13.4399 6.23997H6.23994C5.97557 6.23997 5.75994 6.02435 5.75994 5.75997C5.75994 5.4956 5.97557 5.27997 6.23994 5.27997ZM16.3199 5.27997H17.7599C18.0262 5.27997 18.2399 5.4956 18.2399 5.75997C18.2399 6.02435 18.0262 6.23997 17.7599 6.23997H16.3199C16.0537 6.23997 15.8399 6.02435 15.8399 5.75997C15.8399 5.4956 16.0537 5.27997 16.3199 5.27997ZM6.23994 8.15997H11.5199C11.7843 8.15997 11.9999 8.3756 11.9999 8.63997C11.9999 8.90435 11.7843 9.11997 11.5199 9.11997H6.23994C5.97557 9.11997 5.75994 8.90435 5.75994 8.63997C5.75994 8.3756 5.97557 8.15997 6.23994 8.15997ZM16.3199 8.15997H17.7599C18.0262 8.15997 18.2399 8.3756 18.2399 8.63997C18.2399 8.90435 18.0262 9.11997 17.7599 9.11997H16.3199C16.0537 9.11997 15.8399 8.90435 15.8399 8.63997C15.8399 8.3756 16.0537 8.15997 16.3199 8.15997ZM6.23994 11.04H13.4399C13.7062 11.04 13.9199 11.2556 13.9199 11.52C13.9199 11.7843 13.7062 12 13.4399 12H6.23994C5.97557 12 5.75994 11.7843 5.75994 11.52C5.75994 11.2556 5.97557 11.04 6.23994 11.04ZM16.3199 11.04H17.7599C18.0262 11.04 18.2399 11.2556 18.2399 11.52C18.2399 11.7843 18.0262 12 17.7599 12H16.3199C16.0537 12 15.8399 11.7843 15.8399 11.52C15.8399 11.2556 16.0537 11.04 16.3199 11.04ZM6.23994 13.92H11.5199C11.7843 13.92 11.9999 14.1337 11.9999 14.4C11.9999 14.6662 11.7843 14.88 11.5199 14.88H6.23994C5.97557 14.88 5.75994 14.6662 5.75994 14.4C5.75994 14.1337 5.97557 13.92 6.23994 13.92ZM16.3199 13.92H17.7599C18.0262 13.92 18.2399 14.1337 18.2399 14.4C18.2399 14.6662 18.0262 14.88 17.7599 14.88H16.3199C16.0537 14.88 15.8399 14.6662 15.8399 14.4C15.8399 14.1337 16.0537 13.92 16.3199 13.92ZM6.23994 16.8C6.50432 16.8 6.71994 17.0156 6.71994 17.28C6.71994 17.5443 6.50432 17.76 6.23994 17.76C5.97557 17.76 5.75994 17.5443 5.75994 17.28C5.75994 17.0156 5.97557 16.8 6.23994 16.8ZM7.67994 16.8C7.94432 16.8 8.15994 17.0156 8.15994 17.28C8.15994 17.5443 7.94432 17.76 7.67994 17.76C7.41557 17.76 7.19994 17.5443 7.19994 17.28C7.19994 17.0156 7.41557 16.8 7.67994 16.8ZM9.11994 16.8C9.38432 16.8 9.59994 17.0156 9.59994 17.28C9.59994 17.5443 9.38432 17.76 9.11994 17.76C8.85557 17.76 8.63994 17.5443 8.63994 17.28C8.63994 17.0156 8.85557 16.8 9.11994 16.8ZM10.5599 16.8C10.8243 16.8 11.0399 17.0156 11.0399 17.28C11.0399 17.5443 10.8243 17.76 10.5599 17.76C10.2956 17.76 10.0799 17.5443 10.0799 17.28C10.0799 17.0156 10.2956 16.8 10.5599 16.8ZM11.9999 16.8C12.2643 16.8 12.4799 17.0156 12.4799 17.28C12.4799 17.5443 12.2643 17.76 11.9999 17.76C11.7356 17.76 11.5199 17.5443 11.5199 17.28C11.5199 17.0156 11.7356 16.8 11.9999 16.8ZM13.4399 16.8C13.7043 16.8 13.9199 17.0156 13.9199 17.28C13.9199 17.5443 13.7043 17.76 13.4399 17.76C13.1756 17.76 12.9599 17.5443 12.9599 17.28C12.9599 17.0156 13.1756 16.8 13.4399 16.8ZM14.8799 16.8C15.1443 16.8 15.3599 17.0156 15.3599 17.28C15.3599 17.5443 15.1443 17.76 14.8799 17.76C14.6156 17.76 14.3999 17.5443 14.3999 17.28C14.3999 17.0156 14.6156 16.8 14.8799 16.8ZM16.3199 16.8C16.5843 16.8 16.7999 17.0156 16.7999 17.28C16.7999 17.5443 16.5843 17.76 16.3199 17.76C16.0556 17.76 15.8399 17.5443 15.8399 17.28C15.8399 17.0156 16.0556 16.8 16.3199 16.8ZM17.7599 16.8C18.0243 16.8 18.2399 17.0156 18.2399 17.28C18.2399 17.5443 18.0243 17.76 17.7599 17.76C17.4956 17.76 17.2799 17.5443 17.2799 17.28C17.2799 17.0156 17.4956 16.8 17.7599 16.8ZM14.8799 19.2H17.7599C18.0262 19.2 18.2399 19.4137 18.2399 19.68C18.2399 19.9462 18.0262 20.16 17.7599 20.16H14.8799C14.6137 20.16 14.3999 19.9462 14.3999 19.68C14.3999 19.4137 14.6137 19.2 14.8799 19.2Z" fill="#011627"/>
</svg>
