<svg width="24" height="24" viewBox="0 0 24 24" fill="none" xmlns="http://www.w3.org/2000/svg">
<path d="M11.9998 23.2002C12.4414 23.2002 12.7998 22.8418 12.7998 22.4002L12.7998 19.2002L11.1998 19.2002L11.1998 22.4002C11.1998 22.8418 11.5582 23.2002 11.9998 23.2002ZM11.1998 19.2002L11.1998 9.13145L9.36543 10.9658C9.05263 11.2786 8.54698 11.2786 8.23418 10.9658C7.92138 10.653 7.92138 10.1474 8.23418 9.83457L11.4342 6.63457C11.5902 6.47857 11.795 6.4002 11.9998 6.4002C12.2046 6.4002 12.4094 6.47857 12.5654 6.63457L15.7654 9.83457C16.0782 10.1474 16.0782 10.653 15.7654 10.9658C15.4526 11.2786 14.947 11.2786 14.6342 10.9658L12.7998 9.13145L12.7998 19.2002L19.1998 19.2002C20.0838 19.2002 20.7998 18.4842 20.7998 17.6002L20.7998 4.0002C20.7998 3.1162 20.0838 2.4002 19.1998 2.4002L4.7998 2.4002C3.9158 2.4002 3.1998 3.1162 3.1998 4.0002L3.19981 17.6002C3.19981 18.4842 3.91581 19.2002 4.79981 19.2002L11.1998 19.2002Z" fill="#011627"/>
</svg>
