<svg width="24" height="24" viewBox="0 0 24 24" fill="none" xmlns="http://www.w3.org/2000/svg">
<path fill-rule="evenodd" clip-rule="evenodd" d="M4 4.25C4 3.0095 5.0095 2 6.25 2H12V7.75C12 8.9905 13.0095 10 14.25 10H20V11.5C19.23 11.178 18.3855 11 17.5 11C13.916 11 11 13.916 11 17.5C11 19.245 11.6915 20.8315 12.8145 22H6.25C5.0095 22 4 20.9905 4 19.75V4.25ZM13.5 7.75V2.43945L19.5605 8.5H14.25C13.8365 8.5 13.5 8.1635 13.5 7.75Z" fill="#011627"/>
<path d="M17.5 12C14.4623 12 12 14.4623 12 17.5C12 20.5377 14.4623 23 17.5 23C20.5377 23 23 20.5377 23 17.5C23 14.4623 20.5377 12 17.5 12ZM18.1346 20.6731C18.1346 21.0234 17.8503 21.3077 17.5 21.3077C17.1497 21.3077 16.8654 21.0234 16.8654 20.6731V16.8654C16.8654 16.5151 17.1497 16.2308 17.5 16.2308C17.8503 16.2308 18.1346 16.5151 18.1346 16.8654V20.6731ZM17.5 15.3846C17.0325 15.3846 16.6538 15.006 16.6538 14.5385C16.6538 14.071 17.0325 13.6923 17.5 13.6923C17.9675 13.6923 18.3462 14.071 18.3462 14.5385C18.3462 15.006 17.9675 15.3846 17.5 15.3846Z" fill="#011627"/>
</svg>
