<svg width="24" height="24" viewBox="0 0 24 24" fill="none" xmlns="http://www.w3.org/2000/svg">
<path d="M5.6 1.6001C4.716 1.6001 4 2.3161 4 3.2001V20.8001C4 21.6841 4.716 22.4001 5.6 22.4001H13.05C13.6612 20.6225 15.2518 20.0363 16.1078 19.7235C16.1574 19.7051 16.2135 19.6842 16.2703 19.6626C16.0815 19.4146 15.9031 19.1368 15.7688 18.8392C15.3703 18.4136 15.0797 17.7903 15.0797 17.0079C15.0797 16.8727 15.0894 16.7443 15.1078 16.6235C14.9766 16.2699 14.8687 15.8289 14.8688 15.3329C14.8703 12.9385 16.6912 11.2001 19.2 11.2001C19.4856 11.2001 19.7496 11.2523 20 11.3251V7.6001C20 7.3881 19.916 7.18407 19.7656 7.03447L14.5656 1.83447C14.4152 1.68407 14.212 1.6001 14 1.6001H5.6ZM13.6 3.12354L18.4766 8.0001H14.4C13.9584 8.0001 13.6 7.6417 13.6 7.2001V3.12354ZM19.2 12.7985C17.6928 12.7985 16.4703 13.7073 16.4703 15.3329C16.4703 16.0201 16.8547 16.5548 16.8547 16.5548C16.8547 16.5548 16.6797 16.6407 16.6797 17.0079C16.6797 17.7207 17.1391 17.8923 17.1391 17.8923C17.2031 18.4571 18.0797 19.2845 18.0797 19.2845V20.2267C17.6085 21.6419 14.4 20.8313 14.4 24.0001H24C24 20.8313 20.7915 21.6419 20.3203 20.2267V19.2845C20.3203 19.2845 21.1977 18.4571 21.2609 17.8923C21.2609 17.8923 21.7203 17.5751 21.7203 17.0079C21.7203 16.6143 21.5453 16.5548 21.5453 16.5548C21.5453 16.5548 21.8594 15.9572 21.8594 15.386C21.8594 14.2412 21.2859 13.3595 20.3203 13.3595C20.3203 13.3595 19.9096 12.7985 19.2 12.7985Z" fill="#011627"/>
</svg>
