<svg width="375" height="812" viewBox="0 0 375 812" fill="none" xmlns="http://www.w3.org/2000/svg">
<g clip-path="url(#clip0_6452_2452)">
<rect width="375" height="812" rx="23" fill="white"/>
<path fill-rule="evenodd" clip-rule="evenodd" d="M376 112.427C252.663 -6.70266 125.434 62.284 101.295 113.36L101.24 113.476C90.6551 135.874 70.7571 177.978 0 197V23C0 10.2974 10.2975 0 23 0H353C365.703 0 376 10.2975 376 23V112.427Z" fill="url(#paint0_linear_6452_2452)" fill-opacity="0.77"/>
<path fill-rule="evenodd" clip-rule="evenodd" d="M375 751.117V789.632C375 802.334 364.702 812.632 352 812.632H7.99951C35.063 806.303 65.3135 798.886 99.2116 790.27C215.675 760.669 305.821 749.721 375 751.117Z" fill="url(#paint1_linear_6452_2452)" fill-opacity="0.68"/>
</g>
<defs>
<linearGradient id="paint0_linear_6452_2452" x1="188" y1="0" x2="188" y2="197" gradientUnits="userSpaceOnUse">
<stop stop-color="#0693E3"/>
<stop offset="1" stop-color="#0693E3"/>
</linearGradient>
<linearGradient id="paint1_linear_6452_2452" x1="191.5" y1="751" x2="191.5" y2="812.632" gradientUnits="userSpaceOnUse">
<stop stop-color="#0693E3"/>
<stop offset="1" stop-color="#0693E3"/>
</linearGradient>
<clipPath id="clip0_6452_2452">
<rect width="375" height="812" rx="23" fill="white"/>
</clipPath>
</defs>
</svg>
