<svg width="80" height="29" viewBox="0 0 80 29" fill="none" xmlns="http://www.w3.org/2000/svg">
<g clip-path="url(#clip0_6772_3134)">
<path d="M0 7.51041H8.96L8.1664 10.4896H2.9344V13.76H7.36V16.288H2.9344V20.3744H8.6592L8.72 23.5744H0V7.51041ZM19.0752 12.512C18.3873 12.0367 17.6121 11.7021 16.7944 11.5274C15.9767 11.3528 15.1325 11.3416 14.3104 11.4944C7.8912 12.6208 8.1632 22.6048 14.0192 23.5456C15.6699 23.8187 17.3617 23.4288 18.7264 22.4608L17.808 20.448C17.808 20.448 16.464 21.2928 15.0048 21.0624C11.6768 20.5376 11.5456 15.0656 14.7744 14.1024C16.3392 13.6384 18.0384 14.72 18.0384 14.72L19.0752 12.512ZM80 12.512C79.3121 12.0365 78.537 11.7018 77.7193 11.5272C76.9015 11.3525 76.0573 11.3414 75.2352 11.4944C68.8 12.6208 69.088 22.6016 74.944 23.5424C76.5958 23.8164 78.2889 23.4265 79.6544 22.4576L78.72 20.448C78.72 20.448 77.376 21.2928 75.9168 21.0624C72.592 20.5376 72.4576 15.0656 75.6864 14.1024C77.2544 13.6352 78.9504 14.7168 78.9504 14.7168L80 12.512ZM50.5792 17.4592C50.5792 20.7872 49.152 23.9072 45.4944 23.9072C42.2496 23.9072 40.4512 20.864 40.4512 17.4592C40.4512 15.8048 41.2448 11.3536 45.4944 11.2896C49.744 11.2256 50.5856 15.1904 50.5792 17.4592ZM45.4944 14.0576C42.7072 14.0576 42.3616 20.8352 45.4944 20.8352C48.5504 20.8384 48.2432 14.0576 45.4944 14.0576ZM29.728 17.4592C29.7184 20.8 28.3008 23.9104 24.64 23.9104C21.3984 23.9104 19.6 20.8672 19.6 17.4624C19.6 15.808 20.3936 11.3568 24.64 11.2928C28.8864 11.2288 29.7344 15.1904 29.728 17.4592ZM24.64 14.0576C21.856 14.0576 21.5104 20.8352 24.64 20.8352C27.7024 20.8384 27.3952 14.0576 24.64 14.0576ZM61.92 15.2544C61.92 15.8944 61.9872 23.9488 61.7984 25.312C61.5552 27.0784 60.4128 28.416 58.6304 28.6016C55.5488 28.9216 52.2944 27.4432 52.2944 27.4432L52.9632 25.0048C55.392 25.5232 57.3792 26.4544 58.2624 25.5552C58.7456 25.0656 58.5824 23.1776 58.5824 23.1776C57.2759 23.7031 55.8208 23.7247 54.4992 23.2384C52.2304 22.4256 51.3888 18.7584 52.1984 15.8528C53.008 12.9472 54.5728 11.84 56.2464 11.6384C57.284 11.558 58.3169 11.8446 59.1648 12.448L59.8048 11.3152L62.4 12.6944C62.0288 14.2368 61.9264 14.1984 61.9264 15.2544H61.92ZM58.832 20.0544L58.6688 14.8672C58.6688 14.8672 57.7088 14.2272 57.0464 14.2272C56.384 14.2272 55.7664 14.5472 55.264 16.1728C54.7616 17.7984 55.1008 19.904 56.544 20.7136C57.9872 21.5232 58.8416 20.0672 58.8416 20.0672L58.832 20.0544ZM62.8736 14.448H64.8544V23.6032H68.2048V11.9008H62.944L62.8736 14.448ZM65.8016 3.20001C65.3235 3.18985 64.8532 3.32217 64.4506 3.58013C64.048 3.83808 63.7312 4.21 63.5406 4.64855C63.3499 5.0871 63.2941 5.57245 63.3802 6.04283C63.4663 6.5132 63.6904 6.94732 64.0239 7.28995C64.3575 7.63257 64.7855 7.8682 65.2534 7.96684C65.7213 8.06548 66.2079 8.02267 66.6514 7.84387C67.0949 7.66506 67.4752 7.35835 67.7438 6.96275C68.0125 6.56716 68.1573 6.10058 68.16 5.62241C68.1651 5.30826 68.108 4.99621 67.9921 4.7042C67.8761 4.41218 67.7036 4.14596 67.4845 3.92085C67.2653 3.69573 67.0038 3.51615 66.715 3.39245C66.4262 3.26874 66.1158 3.20334 65.8016 3.20001Z" fill="#EE7F00"/>
<path d="M32.6624 7.51682H36.1824C36.1824 7.51682 36.1344 21.8784 36.1824 21.8784C36.1824 23.7504 37.0656 25.04 38.8864 25.04H42.9376V27.9936H38.4896C34.544 27.9936 32.672 25.6064 32.672 22.1504C32.6688 22.1504 32.6624 7.51682 32.6624 7.51682ZM61.6096 5.24482C62.0096 2.51202 63.9616 1.50722 65.7696 1.29922C66.3535 1.25768 66.9396 1.33843 67.4906 1.53631C68.0415 1.73419 68.5451 2.04484 68.9691 2.44841C69.3932 2.85198 69.7283 3.33958 69.9532 3.88005C70.1781 4.42052 70.2878 5.00196 70.2752 5.58722C70.3232 8.62402 66.9472 10.7072 64.688 9.78242C65.0495 9.85922 65.8656 10.5632 67.9904 9.99042C69.9648 9.45922 71.408 7.57762 71.5808 5.35682C71.6512 1.40802 68.272 0.0608171 66.224 0.153617C65.6896 0.179217 61.6672 0.572817 61.6096 5.24162V5.24482ZM62.7008 8.32002C64.1696 10.0864 66.9568 10.0192 68.1408 8.81922C66.9216 9.15842 64.7872 9.18082 63.5264 7.66082C62.0704 5.90082 62.5664 4.18242 62.8096 3.14562C61.6416 4.24002 61.3216 6.65922 62.7008 8.32002Z" fill="#95C11F"/>
</g>
<defs>
<clipPath id="clip0_6772_3134">
<rect width="80" height="28.8" fill="white"/>
</clipPath>
</defs>
</svg>
