<svg width="151" height="151" viewBox="0 0 151 151" fill="none" xmlns="http://www.w3.org/2000/svg">
<path d="M20 41C19.2044 41 18.4413 41.3161 17.8787 41.8787C17.3161 42.4413 17 43.2044 17 44C17 44.7956 17.3161 45.5587 17.8787 46.1213C18.4413 46.6839 19.2044 47 20 47C20.7956 47 21.5587 46.6839 22.1213 46.1213C22.6839 45.5587 23 44.7956 23 44C23 43.2044 22.6839 42.4413 22.1213 41.8787C21.5587 41.3161 20.7956 41 20 41Z" fill="#78A0CF"/>
<path d="M116 18.5C115.602 18.5 115.221 18.658 114.939 18.9393C114.658 19.2206 114.5 19.6022 114.5 20C114.5 20.3978 114.658 20.7794 114.939 21.0607C115.221 21.342 115.602 21.5 116 21.5C116.398 21.5 116.779 21.342 117.061 21.0607C117.342 20.7794 117.5 20.3978 117.5 20C117.5 19.6022 117.342 19.2206 117.061 18.9393C116.779 18.658 116.398 18.5 116 18.5Z" fill="#F1BC19"/>
<path d="M75.5 20C60.7805 20 46.6638 25.8473 36.2556 36.2556C25.8473 46.6638 20 60.7805 20 75.5C20 90.2195 25.8473 104.336 36.2556 114.744C46.6638 125.153 60.7805 131 75.5 131C90.2195 131 104.336 125.153 114.744 114.744C125.153 104.336 131 90.2195 131 75.5C131 60.7805 125.153 46.6638 114.744 36.2556C104.336 25.8473 90.2195 20 75.5 20Z" fill="#CEE1F4"/>
<path d="M125 17C123.409 17 121.883 17.6321 120.757 18.7574C119.632 19.8826 119 21.4087 119 23C119 24.5913 119.632 26.1174 120.757 27.2426C121.883 28.3679 123.409 29 125 29C126.591 29 128.117 28.3679 129.243 27.2426C130.368 26.1174 131 24.5913 131 23C131 21.4087 130.368 19.8826 129.243 18.7574C128.117 17.6321 126.591 17 125 17Z" fill="#F1BC19"/>
<path d="M131 33.5C130.204 33.5 129.441 33.8161 128.879 34.3787C128.316 34.9413 128 35.7044 128 36.5C128 37.2956 128.316 38.0587 128.879 38.6213C129.441 39.1839 130.204 39.5 131 39.5C131.796 39.5 132.559 39.1839 133.121 38.6213C133.684 38.0587 134 37.2956 134 36.5C134 35.7044 133.684 34.9413 133.121 34.3787C132.559 33.8161 131.796 33.5 131 33.5Z" fill="#78A0CF"/>
<path d="M122 111.5C121.204 111.5 120.441 111.816 119.879 112.379C119.316 112.941 119 113.704 119 114.5C119 115.296 119.316 116.059 119.879 116.621C120.441 117.184 121.204 117.5 122 117.5C122.796 117.5 123.559 117.184 124.121 116.621C124.684 116.059 125 115.296 125 114.5C125 113.704 124.684 112.941 124.121 112.379C123.559 111.816 122.796 111.5 122 111.5ZM23 89C21.4087 89 19.8826 89.6321 18.7574 90.7574C17.6321 91.8826 17 93.4087 17 95C17 96.5913 17.6321 98.1174 18.7574 99.2426C19.8826 100.368 21.4087 101 23 101C24.5913 101 26.1174 100.368 27.2426 99.2426C28.3679 98.1174 29 96.5913 29 95C29 93.4087 28.3679 91.8826 27.2426 90.7574C26.1174 89.6321 24.5913 89 23 89Z" fill="#FBCD59"/>
<path d="M38 128C37.2044 128 36.4413 128.316 35.8787 128.879C35.3161 129.441 35 130.204 35 131C35 131.796 35.3161 132.559 35.8787 133.121C36.4413 133.684 37.2044 134 38 134C38.7956 134 39.5587 133.684 40.1213 133.121C40.6839 132.559 41 131.796 41 131C41 130.204 40.6839 129.441 40.1213 128.879C39.5587 128.316 38.7956 128 38 128Z" fill="#78A0CF"/>
<path d="M28.25 77C27.2554 77 26.3016 77.3951 25.5983 78.0983C24.8951 78.8016 24.5 79.7554 24.5 80.75C24.5 81.7446 24.8951 82.6984 25.5983 83.4017C26.3016 84.1049 27.2554 84.5 28.25 84.5C29.2446 84.5 30.1984 84.1049 30.9017 83.4017C31.6049 82.6984 32 81.7446 32 80.75C32 79.7554 31.6049 78.8016 30.9017 78.0983C30.1984 77.3951 29.2446 77 28.25 77Z" fill="white"/>
<path d="M32 99.5C31.6022 99.5 31.2206 99.658 30.9393 99.9393C30.658 100.221 30.5 100.602 30.5 101C30.5 101.398 30.658 101.779 30.9393 102.061C31.2206 102.342 31.6022 102.5 32 102.5C32.3978 102.5 32.7794 102.342 33.0607 102.061C33.342 101.779 33.5 101.398 33.5 101C33.5 100.602 33.342 100.221 33.0607 99.9393C32.7794 99.658 32.3978 99.5 32 99.5Z" fill="#F1BC19"/>
<path d="M120.5 50C120.102 50 119.721 50.158 119.439 50.4393C119.158 50.7206 119 51.1022 119 51.5C119 51.8978 119.158 52.2794 119.439 52.5607C119.721 52.842 120.102 53 120.5 53C120.898 53 121.279 52.842 121.561 52.5607C121.842 52.2794 122 51.8978 122 51.5C122 51.1022 121.842 50.7206 121.561 50.4393C121.279 50.158 120.898 50 120.5 50Z" fill="white"/>
<path d="M75.3275 106.597L100.695 93.8046C103.514 92.5041 105.248 88.8171 104.165 85.7826C103.298 83.1801 100.913 81.6636 98.3105 81.6636C97.4435 81.6636 96.7925 81.8811 95.9255 82.0971L75.1115 90.5526" fill="#FDDBBC"/>
<path d="M75.3305 107.647C74.945 107.647 74.576 107.435 74.3915 107.069C74.1305 106.55 74.339 105.919 74.8565 105.659L100.223 92.8685C102.689 91.73 104.054 88.5905 103.176 86.1365C102.48 84.0485 100.574 82.715 98.312 82.715C97.7285 82.715 97.265 82.8365 96.6215 83.003L96.182 83.1155L75.509 91.5245C74.969 91.7465 74.3585 91.4855 74.141 90.947C73.9235 90.4085 74.18 89.7965 74.7185 89.579L96.092 80.9705C96.7955 80.7875 97.4585 80.6135 98.312 80.6135C101.493 80.6135 104.182 82.5125 105.161 85.451C106.396 88.91 104.556 93.1805 101.135 94.76L75.8015 107.536C75.65 107.609 75.488 107.647 75.3305 107.647Z" fill="#472B29"/>
<path d="M81.833 108.764L107.201 95.9721C110.02 94.6716 111.753 90.9846 110.67 87.9501C109.803 85.3476 107.419 83.8311 104.816 83.8311C103.949 83.8311 103.298 84.0486 102.431 84.2646L81.6155 92.7201" fill="#FDDBBC"/>
<path d="M81.8345 109.816C81.449 109.816 81.08 109.604 80.8955 109.238C80.6345 108.719 80.843 108.088 81.3605 107.828L106.728 95.036C109.194 93.8975 110.56 90.758 109.682 88.304C108.986 86.216 107.079 84.8825 104.816 84.8825C104.232 84.8825 103.769 85.004 103.125 85.1705L102.686 85.283L82.013 93.6935C81.4745 93.9125 80.8625 93.653 80.645 93.116C80.426 92.579 80.684 91.9655 81.2225 91.748L102.596 83.138C103.3 82.955 103.962 82.781 104.816 82.781C107.999 82.781 110.687 84.68 111.666 87.6185C112.901 91.0775 111.062 95.348 107.641 96.9275L82.3055 109.705C82.154 109.78 81.992 109.816 81.8345 109.816Z" fill="#472B29"/>
<path d="M36.0845 79.0609L47.792 74.7244C49.9595 73.8574 52.1285 73.6399 54.296 73.6399C57.332 73.6399 60.3665 74.2909 62.969 75.8074L83.567 86.6479C86.1695 87.9484 87.0365 91.2004 85.7345 93.8029L85.301 94.6699L87.9035 96.4039L109.151 87.7309C109.802 87.5134 110.452 87.2974 111.103 87.2974C113.27 87.2974 115.222 88.5979 115.873 90.5494C116.739 92.9344 115.439 95.9704 113.054 97.0534L87.686 109.845C87.035 110.279 85.952 110.496 85.0835 110.496C84.215 110.496 83.3495 110.279 82.481 109.845L49.7435 94.6714L36.0845 100.092" fill="#FDDBBC"/>
<path d="M85.085 111.549C84.056 111.549 83.024 111.293 82.013 110.787L49.712 95.8144L36.4715 101.067C35.9405 101.286 35.3225 101.019 35.1095 100.478C34.895 99.9394 35.159 99.3289 35.699 99.1159L49.358 93.6964C49.6235 93.5884 49.9235 93.5959 50.186 93.7204L82.925 108.897C83.669 109.268 84.3875 109.449 85.085 109.449C85.8425 109.449 86.6915 109.25 87.104 108.977L112.582 96.1204C114.486 95.2549 115.565 92.7799 114.886 90.9109C114.379 89.3914 112.828 88.3504 111.104 88.3504C110.624 88.3504 110.072 88.5349 109.486 88.7299L88.301 97.3804C87.98 97.5109 87.6125 97.4749 87.3215 97.2814L84.7205 95.5474C84.281 95.2549 84.1265 94.6789 84.365 94.2034L84.7985 93.3364C85.8785 91.1764 85.1165 88.5979 83.099 87.5899L62.48 76.7359C60.17 75.3904 57.353 74.6899 54.296 74.6899C51.812 74.6899 49.9265 75.0004 48.182 75.6994L36.449 80.0449C35.909 80.2519 35.3015 79.9684 35.1005 79.4254C34.8995 78.8824 35.177 78.2764 35.72 78.0769L47.429 73.7389C49.4075 72.9469 51.533 72.5884 54.2975 72.5884C57.7265 72.5884 60.908 73.3879 63.5 74.8999L84.0575 85.7194C87.089 87.2359 88.274 91.0759 86.675 94.2724L86.6555 94.3114L88.022 95.2219L108.755 86.7574C109.538 86.4934 110.284 86.2459 111.103 86.2459C113.759 86.2459 116.077 87.8404 116.869 90.2149C117.922 93.1144 116.379 96.6949 113.489 98.0089L88.1585 110.783C87.353 111.333 86.0255 111.549 85.085 111.549Z" fill="#472B29"/>
<path d="M67.187 90.6245C66.002 90.0275 64.187 89.1245 64.187 89.1245L67.187 90.6245Z" fill="#FDDBBC"/>
<path d="M67.187 91.3744C67.073 91.3744 66.9575 91.3474 66.848 91.2934C65.666 90.6979 63.8525 89.7949 63.8525 89.7949L64.52 88.4524C64.52 88.4524 66.338 89.3554 67.5245 89.9539C67.8935 90.1399 68.042 90.5914 67.856 90.9619C67.724 91.2229 67.4615 91.3744 67.187 91.3744Z" fill="#472B29"/>
<path d="M85.25 94.2501C84.188 96.1251 81.524 97.5756 77.75 95.7501C76.1285 94.9656 72.788 93.2946 70.043 91.9131" fill="#FDDBBC"/>
<path d="M81.0635 97.34C79.97 97.34 78.7445 97.064 77.423 96.4265C75.8 95.642 72.455 93.9665 69.7055 92.5835C69.335 92.3975 69.1865 91.9475 69.3725 91.577C69.5555 91.2035 70.0085 91.052 70.379 91.244C73.1195 92.621 76.4555 94.292 78.0755 95.075C81.4625 96.7145 83.7065 95.456 84.596 93.881C84.8015 93.518 85.262 93.392 85.619 93.5975C85.979 93.803 86.1065 94.259 85.9025 94.6205C85.0235 96.173 83.318 97.34 81.0635 97.34Z" fill="#472B29"/>
<path d="M96.254 41.1919C93.6148 41.1919 91.0838 42.2403 89.2176 44.1065C87.3514 45.9727 86.303 48.5037 86.303 51.1429C86.303 53.7821 87.3514 56.3131 89.2176 58.1793C91.0838 60.0455 93.6148 61.0939 96.254 61.0939C98.8932 61.0939 101.424 60.0455 103.29 58.1793C105.157 56.3131 106.205 53.7821 106.205 51.1429C106.205 48.5037 105.157 45.9727 103.29 44.1065C101.424 42.2403 98.8932 41.1919 96.254 41.1919Z" fill="#FBCD59"/>
<path d="M96.254 61.8905C90.3275 61.8905 85.5065 57.071 85.5065 51.1445C85.5065 45.218 90.3275 40.397 96.254 40.397C102.18 40.397 107 45.218 107 51.1445C107 57.071 102.18 61.8905 96.254 61.8905ZM96.254 41.9885C91.2065 41.9885 87.0995 46.094 87.0995 51.143C87.0995 56.189 91.205 60.296 96.254 60.296C101.3 60.296 105.407 56.1905 105.407 51.143C105.406 46.0955 101.3 41.9885 96.254 41.9885Z" fill="#472B29"/>
<path d="M96.254 44.636C94.5282 44.636 92.8732 45.3215 91.6529 46.5418C90.4326 47.7621 89.747 49.4172 89.747 51.143C89.747 52.8688 90.4326 54.5238 91.6529 55.7441C92.8732 56.9644 94.5282 57.65 96.254 57.65C97.9798 57.65 99.6348 56.9644 100.855 55.7441C102.075 54.5238 102.761 52.8688 102.761 51.143C102.761 49.4172 102.075 47.7621 100.855 46.5418C99.6348 45.3215 97.9798 44.636 96.254 44.636Z" fill="#F1BC19"/>
<path d="M96.254 58.046C92.4455 58.046 89.3495 54.9485 89.3495 51.143C89.3495 47.3345 92.447 44.2385 96.254 44.2385C100.062 44.2385 103.159 47.336 103.159 51.143C103.159 54.9485 100.061 58.046 96.254 58.046ZM96.254 45.035C92.8865 45.035 90.146 47.7755 90.146 51.143C90.146 54.509 92.8865 57.2495 96.254 57.2495C99.6215 57.2495 102.362 54.509 102.362 51.143C102.362 47.7755 99.6215 45.035 96.254 45.035Z" fill="#472B29"/>
<path d="M80.2475 52.6294C77.6083 52.6294 75.0772 53.6778 73.2111 55.544C71.3449 57.4102 70.2965 59.9412 70.2965 62.5804C70.2965 65.2196 71.3449 67.7506 73.2111 69.6168C75.0772 71.483 77.6083 72.5314 80.2475 72.5314C82.8867 72.5314 85.4177 71.483 87.2839 69.6168C89.1501 67.7506 90.1985 65.2196 90.1985 62.5804C90.1985 59.9412 89.1501 57.4102 87.2839 55.544C85.4177 53.6778 82.8867 52.6294 80.2475 52.6294Z" fill="#FBCD59"/>
<path d="M80.2475 74C74.321 74 69.5 69.0275 69.5 62.9165C69.5 56.8055 74.321 51.8345 80.2475 51.8345C86.174 51.8345 90.995 56.8055 90.995 62.9165C90.995 69.0275 86.174 74 80.2475 74ZM80.2475 53.429C75.2 53.429 71.093 57.5345 71.093 62.582C71.093 67.6295 75.1985 71.7365 80.2475 71.7365C85.2965 71.7365 89.402 67.631 89.402 62.582C89.402 57.5345 85.295 53.429 80.2475 53.429Z" fill="#472B29"/>
<path d="M80.2475 56.075C78.5217 56.075 76.8667 56.7605 75.6464 57.9808C74.4261 59.2011 73.7405 60.8562 73.7405 62.582C73.7405 64.3077 74.4261 65.9628 75.6464 67.1831C76.8667 68.4034 78.5217 69.089 80.2475 69.089C81.9733 69.089 83.6283 68.4034 84.8486 67.1831C86.0689 65.9628 86.7545 64.3077 86.7545 62.582C86.7545 60.8562 86.0689 59.2011 84.8486 57.9808C83.6283 56.7605 81.9733 56.075 80.2475 56.075Z" fill="#F1BC19"/>
<path d="M80.2475 69.485C76.439 69.485 73.343 66.3875 73.343 62.5805C73.343 58.772 76.4405 55.676 80.2475 55.676C84.0545 55.676 87.152 58.7735 87.152 62.5805C87.152 66.389 84.056 69.485 80.2475 69.485ZM80.2475 56.4725C76.88 56.4725 74.1395 59.213 74.1395 62.5805C74.1395 65.948 76.88 68.6885 80.2475 68.6885C83.615 68.6885 86.3555 65.948 86.3555 62.5805C86.3555 59.213 83.615 56.4725 80.2475 56.4725Z" fill="#472B29"/>
<path d="M80.8811 65.0419C80.3636 65.0419 79.9642 64.8844 79.6818 64.5694C79.4156 64.272 79.2738 63.8501 79.2476 63.3124H81.2501V62.6561H79.2345V62.0002H81.2501V61.344H79.2581C79.2948 60.8445 79.4343 60.4485 79.6886 60.168C79.9661 59.8616 80.3617 59.7086 80.8758 59.7086C81.2205 59.7086 81.564 59.7615 81.9056 59.8669L82.0001 59.1394C81.5767 59.0467 81.1991 59.0002 80.8668 59.0002C80.1052 59.0002 79.5007 59.2162 79.0541 59.6479C78.6341 60.0536 78.4053 60.6236 78.3525 61.344H77.5001V62.0002H78.3438V62.6565H77.5001V63.3127H78.3457C78.3806 64.0714 78.6067 64.6669 79.0353 65.0895C79.482 65.5301 80.094 65.7502 80.8713 65.7502C81.2475 65.7502 81.6236 65.7049 82.0001 65.6141L81.906 64.8885C81.5865 64.9909 81.2445 65.0419 80.8811 65.0419Z" fill="black"/>
<path d="M96.881 53.0419C96.3635 53.0419 95.9641 52.8844 95.6817 52.5694C95.4155 52.272 95.2737 51.8501 95.2475 51.3124H97.25V50.6561H95.2343V50.0002H97.25V49.344H95.258C95.2947 48.8445 95.4342 48.4485 95.6885 48.168C95.966 47.8616 96.3616 47.7086 96.8757 47.7086C97.2203 47.7086 97.5638 47.7615 97.9055 47.8669L98 47.1394C97.5766 47.0467 97.199 47.0002 96.8667 47.0002C96.1051 47.0002 95.5006 47.2162 95.054 47.6479C94.634 48.0536 94.4052 48.6236 94.3523 49.344H93.5V50.0002H94.3437V50.6565H93.5V51.3127H94.3456C94.3805 52.0714 94.6066 52.6669 95.0352 53.0895C95.4818 53.5301 96.0938 53.7502 96.8712 53.7502C97.2473 53.7502 97.6235 53.7049 98 53.6141L97.9058 52.8885C97.5863 52.9909 97.2443 53.0419 96.881 53.0419Z" fill="black"/>
</svg>
